<?xml version="1.0" encoding="UTF-8" standalone="no"?>
<!DOCTYPE svg PUBLIC "-//W3C//DTD SVG 1.1//EN" "http://www.w3.org/Graphics/SVG/1.1/DTD/svg11.dtd">
<!-- Generiert durch Microsoft Visio, SVG Export Zeichnung1.svg Zeichenblatt-1 -->
<svg xmlns="http://www.w3.org/2000/svg" xmlns:xlink="http://www.w3.org/1999/xlink" xmlns:ev="http://www.w3.org/2001/xml-events"
		xmlns:v="http://schemas.microsoft.com/visio/2003/SVGExtensions/" width="7.00849in" height="6.65288in"
		viewBox="0 0 504.611 479.008" xml:space="preserve" color-interpolation-filters="sRGB" class="st5">
	<v:documentProperties v:langID="1031" v:metric="true" v:viewMarkup="false"/>

	<style type="text/css">
	<![CDATA[
		.st1 {fill:#ffffff;stroke:#a5a5a5;stroke-dasharray:14,10;stroke-linecap:round;stroke-linejoin:round;stroke-width:2}
		.st2 {fill:#ffffff;stroke:#4f4640;stroke-dasharray:14,10;stroke-linecap:round;stroke-linejoin:round;stroke-width:2}
		.st3 {fill:#ffffff;stroke:#5b9bd5;stroke-linecap:round;stroke-linejoin:round;stroke-width:2}
		.st4 {fill:#ffffff;stroke:#70ad47;stroke-linecap:round;stroke-linejoin:round;stroke-width:2}
		.st5 {fill:none;fill-rule:evenodd;font-size:12px;overflow:visible;stroke-linecap:square;stroke-miterlimit:3}
	]]>
	</style>

	<g v:mID="0" v:index="1" v:groupContext="foregroundPage">
		<title>Zeichenblatt-1</title>
		<v:pageProperties v:drawingScale="0.0393701" v:pageScale="0.0393701" v:drawingUnits="24" v:shadowOffsetX="8.50394"
				v:shadowOffsetY="-8.50394"/>
		<g id="shape22-1" v:mID="22" v:groupContext="shape" transform="translate(13.9209,-13.9209)">
			<title>Achteck.22</title>
			<v:userDefs>
				<v:ud v:nameU="visVersion" v:val="VT0(15):26"/>
			</v:userDefs>
			<path d="M88.19 354.28 L36.53 354.28 L0 390.81 L0 442.48 L36.53 479.01 L88.19 479.01 L124.72 442.48 L124.72 390.81 L88.19
						 354.28 Z" class="st1"/>
		</g>
		<g id="shape23-3" v:mID="23" v:groupContext="shape" transform="translate(190.218,-13.9209)">
			<title>Achteck.23</title>
			<v:userDefs>
				<v:ud v:nameU="visVersion" v:val="VT0(15):26"/>
			</v:userDefs>
			<path d="M88.19 354.28 L36.53 354.28 L0 390.81 L0 442.48 L36.53 479.01 L88.19 479.01 L124.72 442.48 L124.72 390.81 L88.19
						 354.28 Z" class="st1"/>
		</g>
		<g id="shape24-5" v:mID="24" v:groupContext="shape" transform="translate(365.966,-13.9209)">
			<title>Achteck.24</title>
			<v:userDefs>
				<v:ud v:nameU="visVersion" v:val="VT0(15):26"/>
			</v:userDefs>
			<path d="M88.19 354.28 L36.53 354.28 L0 390.81 L0 442.48 L36.53 479.01 L88.19 479.01 L124.72 442.48 L124.72 390.81 L88.19
						 354.28 Z" class="st1"/>
		</g>
		<g id="shape25-7" v:mID="25" v:groupContext="shape" transform="translate(365.966,-177.142)">
			<title>Achteck.25</title>
			<v:userDefs>
				<v:ud v:nameU="visVersion" v:val="VT0(15):26"/>
			</v:userDefs>
			<path d="M88.19 354.28 L36.53 354.28 L0 390.81 L0 442.48 L36.53 479.01 L88.19 479.01 L124.72 442.48 L124.72 390.81 L88.19
						 354.28 Z" class="st1"/>
		</g>
		<g id="shape26-9" v:mID="26" v:groupContext="shape" transform="translate(189.943,-177.142)">
			<title>Achteck.26</title>
			<v:userDefs>
				<v:ud v:nameU="visVersion" v:val="VT0(15):26"/>
			</v:userDefs>
			<path d="M88.19 354.28 L36.53 354.28 L0 390.81 L0 442.48 L36.53 479.01 L88.19 479.01 L124.72 442.48 L124.72 390.81 L88.19
						 354.28 Z" class="st1"/>
		</g>
		<g id="shape27-11" v:mID="27" v:groupContext="shape" transform="translate(13.9209,-177.142)">
			<title>Achteck.27</title>
			<v:userDefs>
				<v:ud v:nameU="visVersion" v:val="VT0(15):26"/>
			</v:userDefs>
			<path d="M88.19 354.28 L36.53 354.28 L0 390.81 L0 442.48 L36.53 479.01 L88.19 479.01 L124.72 442.48 L124.72 390.81 L88.19
						 354.28 Z" class="st1"/>
		</g>
		<g id="shape28-13" v:mID="28" v:groupContext="shape" transform="translate(365.966,-340.362)">
			<title>Achteck.28</title>
			<v:userDefs>
				<v:ud v:nameU="visVersion" v:val="VT0(15):26"/>
			</v:userDefs>
			<path d="M88.19 354.28 L36.53 354.28 L0 390.81 L0 442.48 L36.53 479.01 L88.19 479.01 L124.72 442.48 L124.72 390.81 L88.19
						 354.28 Z" class="st1"/>
		</g>
		<g id="shape29-15" v:mID="29" v:groupContext="shape" transform="translate(189.943,-340.362)">
			<title>Achteck.29</title>
			<v:userDefs>
				<v:ud v:nameU="visVersion" v:val="VT0(15):26"/>
			</v:userDefs>
			<path d="M88.19 354.28 L36.53 354.28 L0 390.81 L0 442.48 L36.53 479.01 L88.19 479.01 L124.72 442.48 L124.72 390.81 L88.19
						 354.28 Z" class="st1"/>
		</g>
		<g id="shape30-17" v:mID="30" v:groupContext="shape" transform="translate(13.9209,-340.362)">
			<title>Achteck.30</title>
			<v:userDefs>
				<v:ud v:nameU="visVersion" v:val="VT0(15):26"/>
			</v:userDefs>
			<path d="M88.19 354.28 L36.53 354.28 L0 390.81 L0 442.48 L36.53 479.01 L88.19 479.01 L124.72 442.48 L124.72 390.81 L88.19
						 354.28 Z" class="st1"/>
		</g>
		<g id="shape31-19" v:mID="31" v:groupContext="shape" transform="translate(19.5902,-346.032)">
			<title>Achteck.31</title>
			<v:userDefs>
				<v:ud v:nameU="visVersion" v:val="VT0(15):26"/>
			</v:userDefs>
			<path d="M80.18 365.62 L33.21 365.62 L0 398.83 L0 445.8 L33.21 479.01 L80.18 479.01 L113.39 445.8 L113.39 398.83 L80.18
						 365.62 Z" class="st2"/>
		</g>
		<g id="shape32-21" v:mID="32" v:groupContext="shape" transform="translate(195.613,-346.032)">
			<title>Achteck.32</title>
			<v:userDefs>
				<v:ud v:nameU="visVersion" v:val="VT0(15):26"/>
			</v:userDefs>
			<path d="M80.18 365.62 L33.21 365.62 L0 398.83 L0 445.8 L33.21 479.01 L80.18 479.01 L113.39 445.8 L113.39 398.83 L80.18
						 365.62 Z" class="st2"/>
		</g>
		<g id="shape33-23" v:mID="33" v:groupContext="shape" transform="translate(19.5902,-182.811)">
			<title>Achteck.33</title>
			<v:userDefs>
				<v:ud v:nameU="visVersion" v:val="VT0(15):26"/>
			</v:userDefs>
			<path d="M80.18 365.62 L33.21 365.62 L0 398.83 L0 445.8 L33.21 479.01 L80.18 479.01 L113.39 445.8 L113.39 398.83 L80.18
						 365.62 Z" class="st2"/>
		</g>
		<g id="shape34-25" v:mID="34" v:groupContext="shape" transform="translate(195.613,-182.811)">
			<title>Achteck.34</title>
			<v:userDefs>
				<v:ud v:nameU="visVersion" v:val="VT0(15):26"/>
			</v:userDefs>
			<path d="M80.18 365.62 L33.21 365.62 L0 398.83 L0 445.8 L33.21 479.01 L80.18 479.01 L113.39 445.8 L113.39 398.83 L80.18
						 365.62 Z" class="st2"/>
		</g>
		<g id="shape35-27" v:mID="35" v:groupContext="shape" transform="translate(371.635,-346.032)">
			<title>Achteck.35</title>
			<v:userDefs>
				<v:ud v:nameU="visVersion" v:val="VT0(15):26"/>
			</v:userDefs>
			<path d="M80.18 365.62 L33.21 365.62 L0 398.83 L0 445.8 L33.21 479.01 L80.18 479.01 L113.39 445.8 L113.39 398.83 L80.18
						 365.62 Z" class="st2"/>
		</g>
		<g id="shape36-29" v:mID="36" v:groupContext="shape" transform="translate(371.635,-182.811)">
			<title>Achteck.36</title>
			<v:userDefs>
				<v:ud v:nameU="visVersion" v:val="VT0(15):26"/>
			</v:userDefs>
			<path d="M80.18 365.62 L33.21 365.62 L0 398.83 L0 445.8 L33.21 479.01 L80.18 479.01 L113.39 445.8 L113.39 398.83 L80.18
						 365.62 Z" class="st2"/>
		</g>
		<g id="shape37-31" v:mID="37" v:groupContext="shape" transform="translate(19.5902,-19.5902)">
			<title>Achteck.37</title>
			<v:userDefs>
				<v:ud v:nameU="visVersion" v:val="VT0(15):26"/>
			</v:userDefs>
			<path d="M80.18 365.62 L33.21 365.62 L0 398.83 L0 445.8 L33.21 479.01 L80.18 479.01 L113.39 445.8 L113.39 398.83 L80.18
						 365.62 Z" class="st2"/>
		</g>
		<g id="shape38-33" v:mID="38" v:groupContext="shape" transform="translate(195.613,-19.5902)">
			<title>Achteck.38</title>
			<v:userDefs>
				<v:ud v:nameU="visVersion" v:val="VT0(15):26"/>
			</v:userDefs>
			<path d="M80.18 365.62 L33.21 365.62 L0 398.83 L0 445.8 L33.21 479.01 L80.18 479.01 L113.39 445.8 L113.39 398.83 L80.18
						 365.62 Z" class="st2"/>
		</g>
		<g id="shape39-35" v:mID="39" v:groupContext="shape" transform="translate(371.635,-19.5902)">
			<title>Achteck.39</title>
			<v:userDefs>
				<v:ud v:nameU="visVersion" v:val="VT0(15):26"/>
			</v:userDefs>
			<path d="M80.18 365.62 L33.21 365.62 L0 398.83 L0 445.8 L33.21 479.01 L80.18 479.01 L113.39 445.8 L113.39 398.83 L80.18
						 365.62 Z" class="st2"/>
		</g>
		<g id="shape40-37" v:mID="40" v:groupContext="shape" transform="translate(104.63,529.779) rotate(180)">
			<title>Dreieck.40</title>
			<v:userDefs>
				<v:ud v:nameU="visVersion" v:val="VT0(15):26"/>
			</v:userDefs>
			<path d="M56.69 479.01 L28.35 422.31 L0 479.01 L56.69 479.01 Z" class="st3"/>
		</g>
		<g id="shape41-39" v:mID="41" v:groupContext="shape" transform="translate(399.981,-47.9367)">
			<title>Dreieck.41</title>
			<v:userDefs>
				<v:ud v:nameU="visVersion" v:val="VT0(15):26"/>
			</v:userDefs>
			<path d="M56.69 479.01 L28.35 422.31 L0 479.01 L56.69 479.01 Z" class="st4"/>
		</g>
	</g>
</svg>
