<?xml version="1.0" encoding="UTF-8" standalone="no"?>
<!DOCTYPE svg PUBLIC "-//W3C//DTD SVG 1.1//EN" "http://www.w3.org/Graphics/SVG/1.1/DTD/svg11.dtd">
<!-- Generiert durch Microsoft Visio, SVG Export Zeichnung2.svg Zeichenblatt-1 -->
<svg xmlns="http://www.w3.org/2000/svg" xmlns:xlink="http://www.w3.org/1999/xlink" xmlns:ev="http://www.w3.org/2001/xml-events"
		xmlns:v="http://schemas.microsoft.com/visio/2003/SVGExtensions/" width="7.00849in" height="6.65288in"
		viewBox="0 0 504.611 479.008" xml:space="preserve" color-interpolation-filters="sRGB" class="st7">
	<v:documentProperties v:langID="1031" v:metric="true" v:viewMarkup="false"/>

	<style type="text/css">
	<![CDATA[
		.st1 {fill:#ffffff;stroke:#a5a5a5;stroke-dasharray:14,10;stroke-linecap:round;stroke-linejoin:round;stroke-width:2}
		.st2 {fill:#ffffff;stroke:#70ad47;stroke-dasharray:14,10;stroke-linecap:round;stroke-linejoin:round;stroke-width:2}
		.st3 {fill:#ffffff;stroke:#5b9bd5;stroke-dasharray:14,10;stroke-linecap:round;stroke-linejoin:round;stroke-width:2}
		.st4 {fill:#ffffff;stroke:#4f4640;stroke-dasharray:14,10;stroke-linecap:round;stroke-linejoin:round;stroke-width:2}
		.st5 {fill:#ffffff;stroke:#5b9bd5;stroke-linecap:round;stroke-linejoin:round;stroke-width:2}
		.st6 {fill:#ffffff;stroke:#70ad47;stroke-linecap:round;stroke-linejoin:round;stroke-width:2}
		.st7 {fill:none;fill-rule:evenodd;font-size:12px;overflow:visible;stroke-linecap:square;stroke-miterlimit:3}
	]]>
	</style>

	<g v:mID="0" v:index="1" v:groupContext="foregroundPage">
		<title>Zeichenblatt-1</title>
		<v:pageProperties v:drawingScale="0.0393701" v:pageScale="0.0393701" v:drawingUnits="24" v:shadowOffsetX="8.50394"
				v:shadowOffsetY="-8.50394"/>
		<g id="shape19-1" v:mID="19" v:groupContext="shape" transform="translate(13.9209,-13.9209)">
			<title>Achteck.19</title>
			<v:userDefs>
				<v:ud v:nameU="visVersion" v:val="VT0(15):26"/>
			</v:userDefs>
			<path d="M88.19 354.28 L36.53 354.28 L0 390.81 L0 442.48 L36.53 479.01 L88.19 479.01 L124.72 442.48 L124.72 390.81 L88.19
						 354.28 Z" class="st1"/>
		</g>
		<g id="shape20-3" v:mID="20" v:groupContext="shape" transform="translate(190.218,-13.9209)">
			<title>Achteck.20</title>
			<v:userDefs>
				<v:ud v:nameU="visVersion" v:val="VT0(15):26"/>
			</v:userDefs>
			<path d="M88.19 354.28 L36.53 354.28 L0 390.81 L0 442.48 L36.53 479.01 L88.19 479.01 L124.72 442.48 L124.72 390.81 L88.19
						 354.28 Z" class="st2"/>
		</g>
		<g id="shape21-5" v:mID="21" v:groupContext="shape" transform="translate(365.966,-13.9209)">
			<title>Achteck.21</title>
			<v:userDefs>
				<v:ud v:nameU="visVersion" v:val="VT0(15):26"/>
			</v:userDefs>
			<path d="M88.19 354.28 L36.53 354.28 L0 390.81 L0 442.48 L36.53 479.01 L88.19 479.01 L124.72 442.48 L124.72 390.81 L88.19
						 354.28 Z" class="st2"/>
		</g>
		<g id="shape18-7" v:mID="18" v:groupContext="shape" transform="translate(365.966,-177.142)">
			<title>Achteck.18</title>
			<v:userDefs>
				<v:ud v:nameU="visVersion" v:val="VT0(15):26"/>
			</v:userDefs>
			<path d="M88.19 354.28 L36.53 354.28 L0 390.81 L0 442.48 L36.53 479.01 L88.19 479.01 L124.72 442.48 L124.72 390.81 L88.19
						 354.28 Z" class="st2"/>
		</g>
		<g id="shape17-9" v:mID="17" v:groupContext="shape" transform="translate(189.943,-177.142)">
			<title>Achteck.17</title>
			<v:userDefs>
				<v:ud v:nameU="visVersion" v:val="VT0(15):26"/>
			</v:userDefs>
			<path d="M88.19 354.28 L36.53 354.28 L0 390.81 L0 442.48 L36.53 479.01 L88.19 479.01 L124.72 442.48 L124.72 390.81 L88.19
						 354.28 Z" class="st1"/>
		</g>
		<g id="shape16-11" v:mID="16" v:groupContext="shape" transform="translate(13.9209,-177.142)">
			<title>Achteck.16</title>
			<v:userDefs>
				<v:ud v:nameU="visVersion" v:val="VT0(15):26"/>
			</v:userDefs>
			<path d="M88.19 354.28 L36.53 354.28 L0 390.81 L0 442.48 L36.53 479.01 L88.19 479.01 L124.72 442.48 L124.72 390.81 L88.19
						 354.28 Z" class="st3"/>
		</g>
		<g id="shape15-13" v:mID="15" v:groupContext="shape" transform="translate(365.966,-340.362)">
			<title>Achteck.15</title>
			<v:userDefs>
				<v:ud v:nameU="visVersion" v:val="VT0(15):26"/>
			</v:userDefs>
			<path d="M88.19 354.28 L36.53 354.28 L0 390.81 L0 442.48 L36.53 479.01 L88.19 479.01 L124.72 442.48 L124.72 390.81 L88.19
						 354.28 Z" class="st1"/>
		</g>
		<g id="shape14-15" v:mID="14" v:groupContext="shape" transform="translate(189.943,-340.362)">
			<title>Achteck.14</title>
			<v:userDefs>
				<v:ud v:nameU="visVersion" v:val="VT0(15):26"/>
			</v:userDefs>
			<path d="M88.19 354.28 L36.53 354.28 L0 390.81 L0 442.48 L36.53 479.01 L88.19 479.01 L124.72 442.48 L124.72 390.81 L88.19
						 354.28 Z" class="st3"/>
		</g>
		<g id="shape13-17" v:mID="13" v:groupContext="shape" transform="translate(13.9209,-340.362)">
			<title>Achteck.13</title>
			<v:userDefs>
				<v:ud v:nameU="visVersion" v:val="VT0(15):26"/>
			</v:userDefs>
			<path d="M88.19 354.28 L36.53 354.28 L0 390.81 L0 442.48 L36.53 479.01 L88.19 479.01 L124.72 442.48 L124.72 390.81 L88.19
						 354.28 Z" class="st3"/>
		</g>
		<g id="shape1-19" v:mID="1" v:groupContext="shape" transform="translate(19.5902,-346.032)">
			<title>Achteck</title>
			<v:userDefs>
				<v:ud v:nameU="visVersion" v:val="VT0(15):26"/>
			</v:userDefs>
			<path d="M80.18 365.62 L33.21 365.62 L0 398.83 L0 445.8 L33.21 479.01 L80.18 479.01 L113.39 445.8 L113.39 398.83 L80.18
						 365.62 Z" class="st4"/>
		</g>
		<g id="shape2-21" v:mID="2" v:groupContext="shape" transform="translate(195.613,-346.032)">
			<title>Achteck.2</title>
			<v:userDefs>
				<v:ud v:nameU="visVersion" v:val="VT0(15):26"/>
			</v:userDefs>
			<path d="M80.18 365.62 L33.21 365.62 L0 398.83 L0 445.8 L33.21 479.01 L80.18 479.01 L113.39 445.8 L113.39 398.83 L80.18
						 365.62 Z" class="st4"/>
		</g>
		<g id="shape3-23" v:mID="3" v:groupContext="shape" transform="translate(19.5902,-182.811)">
			<title>Achteck.3</title>
			<v:userDefs>
				<v:ud v:nameU="visVersion" v:val="VT0(15):26"/>
			</v:userDefs>
			<path d="M80.18 365.62 L33.21 365.62 L0 398.83 L0 445.8 L33.21 479.01 L80.18 479.01 L113.39 445.8 L113.39 398.83 L80.18
						 365.62 Z" class="st4"/>
		</g>
		<g id="shape4-25" v:mID="4" v:groupContext="shape" transform="translate(195.613,-182.811)">
			<title>Achteck.4</title>
			<v:userDefs>
				<v:ud v:nameU="visVersion" v:val="VT0(15):26"/>
			</v:userDefs>
			<path d="M80.18 365.62 L33.21 365.62 L0 398.83 L0 445.8 L33.21 479.01 L80.18 479.01 L113.39 445.8 L113.39 398.83 L80.18
						 365.62 Z" class="st4"/>
		</g>
		<g id="shape5-27" v:mID="5" v:groupContext="shape" transform="translate(371.635,-346.032)">
			<title>Achteck.5</title>
			<v:userDefs>
				<v:ud v:nameU="visVersion" v:val="VT0(15):26"/>
			</v:userDefs>
			<path d="M80.18 365.62 L33.21 365.62 L0 398.83 L0 445.8 L33.21 479.01 L80.18 479.01 L113.39 445.8 L113.39 398.83 L80.18
						 365.62 Z" class="st4"/>
		</g>
		<g id="shape6-29" v:mID="6" v:groupContext="shape" transform="translate(371.635,-182.811)">
			<title>Achteck.6</title>
			<v:userDefs>
				<v:ud v:nameU="visVersion" v:val="VT0(15):26"/>
			</v:userDefs>
			<path d="M80.18 365.62 L33.21 365.62 L0 398.83 L0 445.8 L33.21 479.01 L80.18 479.01 L113.39 445.8 L113.39 398.83 L80.18
						 365.62 Z" class="st4"/>
		</g>
		<g id="shape7-31" v:mID="7" v:groupContext="shape" transform="translate(19.5902,-19.5902)">
			<title>Achteck.7</title>
			<v:userDefs>
				<v:ud v:nameU="visVersion" v:val="VT0(15):26"/>
			</v:userDefs>
			<path d="M80.18 365.62 L33.21 365.62 L0 398.83 L0 445.8 L33.21 479.01 L80.18 479.01 L113.39 445.8 L113.39 398.83 L80.18
						 365.62 Z" class="st4"/>
		</g>
		<g id="shape8-33" v:mID="8" v:groupContext="shape" transform="translate(195.613,-19.5902)">
			<title>Achteck.8</title>
			<v:userDefs>
				<v:ud v:nameU="visVersion" v:val="VT0(15):26"/>
			</v:userDefs>
			<path d="M80.18 365.62 L33.21 365.62 L0 398.83 L0 445.8 L33.21 479.01 L80.18 479.01 L113.39 445.8 L113.39 398.83 L80.18
						 365.62 Z" class="st4"/>
		</g>
		<g id="shape9-35" v:mID="9" v:groupContext="shape" transform="translate(371.635,-19.5902)">
			<title>Achteck.9</title>
			<v:userDefs>
				<v:ud v:nameU="visVersion" v:val="VT0(15):26"/>
			</v:userDefs>
			<path d="M80.18 365.62 L33.21 365.62 L0 398.83 L0 445.8 L33.21 479.01 L80.18 479.01 L113.39 445.8 L113.39 398.83 L80.18
						 365.62 Z" class="st4"/>
		</g>
		<g id="shape10-37" v:mID="10" v:groupContext="shape" transform="translate(104.63,529.322) rotate(180)">
			<title>Dreieck</title>
			<v:userDefs>
				<v:ud v:nameU="visVersion" v:val="VT0(15):26"/>
			</v:userDefs>
			<path d="M56.69 479.01 L28.35 422.31 L0 479.01 L56.69 479.01 Z" class="st5"/>
		</g>
		<g id="shape12-39" v:mID="12" v:groupContext="shape" transform="translate(399.981,-47.9367)">
			<title>Dreieck.12</title>
			<v:userDefs>
				<v:ud v:nameU="visVersion" v:val="VT0(15):26"/>
			</v:userDefs>
			<path d="M56.69 479.01 L28.35 422.31 L0 479.01 L56.69 479.01 Z" class="st6"/>
		</g>
	</g>
</svg>
