<?xml version="1.0" encoding="UTF-8" standalone="no"?>
<!DOCTYPE svg PUBLIC "-//W3C//DTD SVG 1.1//EN" "http://www.w3.org/Graphics/SVG/1.1/DTD/svg11.dtd">
<!-- Generiert durch Microsoft Visio, SVG Export Zeichnung4.svg Zeichenblatt-1 -->
<svg xmlns="http://www.w3.org/2000/svg" xmlns:xlink="http://www.w3.org/1999/xlink" xmlns:ev="http://www.w3.org/2001/xml-events"
		xmlns:v="http://schemas.microsoft.com/visio/2003/SVGExtensions/" width="7.00849in" height="6.65288in"
		viewBox="0 0 504.611 479.008" xml:space="preserve" color-interpolation-filters="sRGB" class="st8">
	<v:documentProperties v:langID="1031" v:metric="true" v:viewMarkup="false"/>

	<style type="text/css">
	<![CDATA[
		.st1 {fill:#ffffff;stroke:#5b9bd5;stroke-dasharray:14,10;stroke-linecap:round;stroke-linejoin:round;stroke-width:2}
		.st2 {fill:#ffffff;stroke:#70ad47;stroke-dasharray:14,10;stroke-linecap:round;stroke-linejoin:round;stroke-width:2}
		.st3 {fill:#ffffff;stroke:#a5a5a5;stroke-dasharray:14,10;stroke-linecap:round;stroke-linejoin:round;stroke-width:2}
		.st4 {fill:#ffffff;stroke:#ed7d31;stroke-dasharray:14,10;stroke-linecap:round;stroke-linejoin:round;stroke-width:2}
		.st5 {fill:#ffffff;stroke:#4f4640;stroke-dasharray:14,10;stroke-linecap:round;stroke-linejoin:round;stroke-width:2}
		.st6 {fill:#ffffff;stroke:#5b9bd5;stroke-linecap:round;stroke-linejoin:round;stroke-width:2}
		.st7 {fill:#ffffff;stroke:#70ad47;stroke-linecap:round;stroke-linejoin:round;stroke-width:2}
		.st8 {fill:none;fill-rule:evenodd;font-size:12px;overflow:visible;stroke-linecap:square;stroke-miterlimit:3}
	]]>
	</style>

	<g v:mID="0" v:index="1" v:groupContext="foregroundPage">
		<title>Zeichenblatt-1</title>
		<v:pageProperties v:drawingScale="0.0393701" v:pageScale="0.0393701" v:drawingUnits="24" v:shadowOffsetX="8.50394"
				v:shadowOffsetY="-8.50394"/>
		<g id="shape65-1" v:mID="65" v:groupContext="shape" transform="translate(13.9209,-13.9209)">
			<title>Achteck.65</title>
			<v:userDefs>
				<v:ud v:nameU="visVersion" v:val="VT0(15):26"/>
			</v:userDefs>
			<path d="M88.19 354.28 L36.53 354.28 L0 390.81 L0 442.48 L36.53 479.01 L88.19 479.01 L124.72 442.48 L124.72 390.81 L88.19
						 354.28 Z" class="st1"/>
		</g>
		<g id="shape66-3" v:mID="66" v:groupContext="shape" transform="translate(190.218,-13.9209)">
			<title>Achteck.66</title>
			<v:userDefs>
				<v:ud v:nameU="visVersion" v:val="VT0(15):26"/>
			</v:userDefs>
			<path d="M88.19 354.28 L36.53 354.28 L0 390.81 L0 442.48 L36.53 479.01 L88.19 479.01 L124.72 442.48 L124.72 390.81 L88.19
						 354.28 Z" class="st2"/>
		</g>
		<g id="shape67-5" v:mID="67" v:groupContext="shape" transform="translate(365.966,-13.9209)">
			<title>Achteck.67</title>
			<v:userDefs>
				<v:ud v:nameU="visVersion" v:val="VT0(15):26"/>
			</v:userDefs>
			<path d="M88.19 354.28 L36.53 354.28 L0 390.81 L0 442.48 L36.53 479.01 L88.19 479.01 L124.72 442.48 L124.72 390.81 L88.19
						 354.28 Z" class="st3"/>
		</g>
		<g id="shape68-7" v:mID="68" v:groupContext="shape" transform="translate(365.966,-177.142)">
			<title>Achteck.68</title>
			<v:userDefs>
				<v:ud v:nameU="visVersion" v:val="VT0(15):26"/>
			</v:userDefs>
			<path d="M88.19 354.28 L36.53 354.28 L0 390.81 L0 442.48 L36.53 479.01 L88.19 479.01 L124.72 442.48 L124.72 390.81 L88.19
						 354.28 Z" class="st2"/>
		</g>
		<g id="shape69-9" v:mID="69" v:groupContext="shape" transform="translate(189.943,-177.142)">
			<title>Achteck.69</title>
			<v:userDefs>
				<v:ud v:nameU="visVersion" v:val="VT0(15):26"/>
			</v:userDefs>
			<path d="M88.19 354.28 L36.53 354.28 L0 390.81 L0 442.48 L36.53 479.01 L88.19 479.01 L124.72 442.48 L124.72 390.81 L88.19
						 354.28 Z" class="st4"/>
		</g>
		<g id="shape70-11" v:mID="70" v:groupContext="shape" transform="translate(13.9209,-177.142)">
			<title>Achteck.70</title>
			<v:userDefs>
				<v:ud v:nameU="visVersion" v:val="VT0(15):26"/>
			</v:userDefs>
			<path d="M88.19 354.28 L36.53 354.28 L0 390.81 L0 442.48 L36.53 479.01 L88.19 479.01 L124.72 442.48 L124.72 390.81 L88.19
						 354.28 Z" class="st4"/>
		</g>
		<g id="shape71-13" v:mID="71" v:groupContext="shape" transform="translate(365.966,-340.362)">
			<title>Achteck.71</title>
			<v:userDefs>
				<v:ud v:nameU="visVersion" v:val="VT0(15):26"/>
			</v:userDefs>
			<path d="M88.19 354.28 L36.53 354.28 L0 390.81 L0 442.48 L36.53 479.01 L88.19 479.01 L124.72 442.48 L124.72 390.81 L88.19
						 354.28 Z" class="st3"/>
		</g>
		<g id="shape72-15" v:mID="72" v:groupContext="shape" transform="translate(189.943,-340.362)">
			<title>Achteck.72</title>
			<v:userDefs>
				<v:ud v:nameU="visVersion" v:val="VT0(15):26"/>
			</v:userDefs>
			<path d="M88.19 354.28 L36.53 354.28 L0 390.81 L0 442.48 L36.53 479.01 L88.19 479.01 L124.72 442.48 L124.72 390.81 L88.19
						 354.28 Z" class="st2"/>
		</g>
		<g id="shape73-17" v:mID="73" v:groupContext="shape" transform="translate(13.9209,-340.362)">
			<title>Achteck.73</title>
			<v:userDefs>
				<v:ud v:nameU="visVersion" v:val="VT0(15):26"/>
			</v:userDefs>
			<path d="M88.19 354.28 L36.53 354.28 L0 390.81 L0 442.48 L36.53 479.01 L88.19 479.01 L124.72 442.48 L124.72 390.81 L88.19
						 354.28 Z" class="st1"/>
		</g>
		<g id="shape74-19" v:mID="74" v:groupContext="shape" transform="translate(19.5902,-346.032)">
			<title>Achteck.74</title>
			<v:userDefs>
				<v:ud v:nameU="visVersion" v:val="VT0(15):26"/>
			</v:userDefs>
			<path d="M80.18 365.62 L33.21 365.62 L0 398.83 L0 445.8 L33.21 479.01 L80.18 479.01 L113.39 445.8 L113.39 398.83 L80.18
						 365.62 Z" class="st5"/>
		</g>
		<g id="shape75-21" v:mID="75" v:groupContext="shape" transform="translate(195.613,-346.032)">
			<title>Achteck.75</title>
			<v:userDefs>
				<v:ud v:nameU="visVersion" v:val="VT0(15):26"/>
			</v:userDefs>
			<path d="M80.18 365.62 L33.21 365.62 L0 398.83 L0 445.8 L33.21 479.01 L80.18 479.01 L113.39 445.8 L113.39 398.83 L80.18
						 365.62 Z" class="st5"/>
		</g>
		<g id="shape76-23" v:mID="76" v:groupContext="shape" transform="translate(19.5902,-182.811)">
			<title>Achteck.76</title>
			<v:userDefs>
				<v:ud v:nameU="visVersion" v:val="VT0(15):26"/>
			</v:userDefs>
			<path d="M80.18 365.62 L33.21 365.62 L0 398.83 L0 445.8 L33.21 479.01 L80.18 479.01 L113.39 445.8 L113.39 398.83 L80.18
						 365.62 Z" class="st5"/>
		</g>
		<g id="shape77-25" v:mID="77" v:groupContext="shape" transform="translate(195.613,-182.811)">
			<title>Achteck.77</title>
			<v:userDefs>
				<v:ud v:nameU="visVersion" v:val="VT0(15):26"/>
			</v:userDefs>
			<path d="M80.18 365.62 L33.21 365.62 L0 398.83 L0 445.8 L33.21 479.01 L80.18 479.01 L113.39 445.8 L113.39 398.83 L80.18
						 365.62 Z" class="st5"/>
		</g>
		<g id="shape78-27" v:mID="78" v:groupContext="shape" transform="translate(371.635,-346.032)">
			<title>Achteck.78</title>
			<v:userDefs>
				<v:ud v:nameU="visVersion" v:val="VT0(15):26"/>
			</v:userDefs>
			<path d="M80.18 365.62 L33.21 365.62 L0 398.83 L0 445.8 L33.21 479.01 L80.18 479.01 L113.39 445.8 L113.39 398.83 L80.18
						 365.62 Z" class="st5"/>
		</g>
		<g id="shape79-29" v:mID="79" v:groupContext="shape" transform="translate(371.635,-182.811)">
			<title>Achteck.79</title>
			<v:userDefs>
				<v:ud v:nameU="visVersion" v:val="VT0(15):26"/>
			</v:userDefs>
			<path d="M80.18 365.62 L33.21 365.62 L0 398.83 L0 445.8 L33.21 479.01 L80.18 479.01 L113.39 445.8 L113.39 398.83 L80.18
						 365.62 Z" class="st5"/>
		</g>
		<g id="shape80-31" v:mID="80" v:groupContext="shape" transform="translate(19.5902,-19.5902)">
			<title>Achteck.80</title>
			<v:userDefs>
				<v:ud v:nameU="visVersion" v:val="VT0(15):26"/>
			</v:userDefs>
			<path d="M80.18 365.62 L33.21 365.62 L0 398.83 L0 445.8 L33.21 479.01 L80.18 479.01 L113.39 445.8 L113.39 398.83 L80.18
						 365.62 Z" class="st5"/>
		</g>
		<g id="shape81-33" v:mID="81" v:groupContext="shape" transform="translate(195.613,-19.5902)">
			<title>Achteck.81</title>
			<v:userDefs>
				<v:ud v:nameU="visVersion" v:val="VT0(15):26"/>
			</v:userDefs>
			<path d="M80.18 365.62 L33.21 365.62 L0 398.83 L0 445.8 L33.21 479.01 L80.18 479.01 L113.39 445.8 L113.39 398.83 L80.18
						 365.62 Z" class="st5"/>
		</g>
		<g id="shape82-35" v:mID="82" v:groupContext="shape" transform="translate(371.635,-19.5902)">
			<title>Achteck.82</title>
			<v:userDefs>
				<v:ud v:nameU="visVersion" v:val="VT0(15):26"/>
			</v:userDefs>
			<path d="M80.18 365.62 L33.21 365.62 L0 398.83 L0 445.8 L33.21 479.01 L80.18 479.01 L113.39 445.8 L113.39 398.83 L80.18
						 365.62 Z" class="st5"/>
		</g>
		<g id="shape83-37" v:mID="83" v:groupContext="shape" transform="translate(104.63,690.165) rotate(180)">
			<title>Dreieck.83</title>
			<v:userDefs>
				<v:ud v:nameU="visVersion" v:val="VT0(15):26"/>
			</v:userDefs>
			<path d="M56.69 479.01 L28.35 422.31 L0 479.01 L56.69 479.01 Z" class="st6"/>
		</g>
		<g id="shape84-39" v:mID="84" v:groupContext="shape" transform="translate(224.233,-211.157)">
			<title>Dreieck.84</title>
			<v:userDefs>
				<v:ud v:nameU="visVersion" v:val="VT0(15):26"/>
			</v:userDefs>
			<path d="M56.69 479.01 L28.35 422.31 L0 479.01 L56.69 479.01 Z" class="st7"/>
		</g>
	</g>
</svg>
